# xmcd
# 
# Track frame offsets:
#     150
#     14247
#     30187
#     45435
#     64200
#     84597
#     101697
#     121272
# 
# Disc length: 1893
# 
# Revision: 2
# Processed by: cddbd v1.5.2PL0 Copyright (c) Steve Scherf et al.
# Submitted via: BonkEnc v1.0.6
# 
DISCID=5f076308
DTITLE=Henry Schweizer - Something's coming
DYEAR=0
DGENRE=Rock
TTITLE0=Double gin
TTITLE1=Corasson
TTITLE2=Something's coming
TTITLE3=Jungle talk
TTITLE4=Perfect stranger
TTITLE5=I can't get you out of my mind
TTITLE6=Time 4 a change
TTITLE7=Solitude
EXTD=
EXTT0=
EXTT1=
EXTT2=
EXTT3=
EXTT4=
EXTT5=
EXTT6=
EXTT7=
PLAYORDER=
